<?xml version="1.0" standalone="no"?>
<!DOCTYPE svg PUBLIC "-//W3C//DTD SVG 20010904//EN"
 "http://www.w3.org/TR/2001/REC-SVG-20010904/DTD/svg10.dtd">
<svg version="1.0" xmlns="http://www.w3.org/2000/svg"
 width="282.000000pt" height="380.000000pt" viewBox="0 0 282.000000 380.000000"
 preserveAspectRatio="xMidYMid meet">

<g transform="translate(0.000000,380.000000) scale(0.100000,-0.100000)"
fill="#000000" stroke="none">
<path d="M1040 3790 c20 -13 90 -13 90 0 0 6 -24 10 -52 10 -38 0 -49 -3 -38
-10z"/>
<path d="M1250 3769 c0 -5 5 -7 10 -4 6 3 10 8 10 11 0 2 -4 4 -10 4 -5 0 -10
-5 -10 -11z"/>
<path d="M958 3763 c6 -2 18 -2 25 0 6 3 1 5 -13 5 -14 0 -19 -2 -12 -5z"/>
<path d="M1503 3745 c16 -14 33 -22 39 -19 5 4 -3 15 -19 25 -40 27 -53 23
-20 -6z"/>
<path d="M992 3753 c-70 -4 -72 -13 -7 -42 25 -11 45 -23 45 -26 0 -8 -35 2
-73 21 -16 7 -41 11 -58 7 -30 -6 -51 -23 -28 -23 27 0 100 -43 95 -56 -3 -7
3 -16 14 -19 10 -3 21 -12 24 -20 8 -23 25 -18 19 5 -9 36 5 21 57 -55 28 -41
46 -75 40 -75 -10 0 -65 70 -73 93 -2 7 -7 9 -11 6 -4 -3 2 -27 13 -53 17 -38
29 -50 63 -65 34 -14 50 -30 71 -69 31 -57 33 -72 11 -72 -8 0 -12 -4 -9 -10
9 -14 95 -63 101 -58 8 8 -7 38 -20 38 -13 0 -62 108 -53 117 4 3 -9 24 -29
47 -19 22 -37 52 -41 66 -3 14 -10 30 -17 35 -21 19 -65 89 -60 94 3 3 11 -1
17 -9 17 -22 91 -30 135 -15 34 11 101 -62 125 -138 10 -31 22 -57 27 -57 5 0
8 6 5 13 -2 6 -11 37 -20 67 -10 30 -27 65 -38 78 -16 17 -18 25 -9 34 22 22
14 45 -19 52 -33 6 -31 26 4 26 38 0 -1 25 -72 45 -46 14 -66 16 -68 8 -3 -9
-15 -8 -45 3 -22 8 -43 13 -47 12 -3 -1 -34 -3 -69 -5z m93 -41 c58 -20 92
-39 85 -45 -8 -7 -140 45 -140 54 0 12 -2 12 55 -9z"/>
<path d="M1346 3709 c21 -23 73 -53 80 -46 3 3 -13 19 -34 36 -46 36 -75 42
-46 10z"/>
<path d="M1630 3702 c0 -12 7 -25 15 -29 24 -9 25 0 5 27 l-20 25 0 -23z"/>
<path d="M725 3703 c-11 -3 -29 -12 -40 -20 -19 -14 -18 -15 15 -9 19 4 41 13
50 21 15 15 10 17 -25 8z"/>
<path d="M1335 3650 c4 -6 1 -18 -7 -27 -10 -13 -10 -17 0 -20 6 -3 12 -13 12
-23 0 -10 16 -33 36 -53 l36 -35 2 -116 c0 -64 -2 -116 -6 -116 -12 0 -78 70
-78 82 0 9 -3 9 -12 0 -10 -10 -18 -1 -41 40 -15 29 -25 42 -21 28 4 -14 8
-40 9 -59 2 -27 9 -38 41 -57 21 -13 48 -41 60 -63 16 -30 24 -37 32 -29 17
17 28 0 14 -22 -16 -26 -15 -30 6 -30 25 0 34 11 22 25 -7 9 -6 14 4 18 16 6
28 -16 20 -37 -3 -9 1 -13 12 -13 10 1 20 -6 22 -15 2 -12 -3 -18 -13 -18 -13
0 -16 -6 -11 -22 3 -13 6 -33 6 -45 0 -35 14 -27 28 15 22 61 26 102 11 102
-8 0 -22 14 -31 30 -9 17 -24 30 -32 30 -9 0 -12 7 -9 20 3 11 0 27 -7 35 -11
13 -10 14 1 10 8 -3 27 -24 44 -46 28 -39 29 -39 48 -21 18 19 18 21 1 73 -18
56 -44 130 -65 187 -6 18 -24 39 -39 47 -23 12 -65 74 -56 82 1 2 25 -4 52
-12 64 -19 71 -19 49 5 -16 18 -16 20 -2 20 21 0 22 16 1 24 -25 10 -46 7 -38
-5 3 -6 1 -15 -5 -19 -20 -12 -59 1 -64 21 -3 10 -13 19 -22 19 -9 0 -13 -5
-10 -10z m155 -356 c0 -8 -4 -12 -10 -9 -5 3 -10 10 -10 16 0 5 5 9 10 9 6 0
10 -7 10 -16z"/>
<path d="M1676 3645 c7 -17 36 -35 56 -35 14 1 -37 50 -52 50 -5 0 -7 -7 -4
-15z"/>
<path d="M515 3641 c-27 -4 -62 -15 -77 -24 -15 -11 -29 -14 -32 -8 -3 5 -15
7 -26 4 -12 -3 -20 -2 -18 3 5 15 -15 14 -61 -3 -29 -11 -56 -33 -82 -66 -57
-72 -50 -95 10 -33 45 46 144 91 170 77 15 -9 30 -5 68 14 27 13 62 23 78 22
15 -1 30 4 32 11 3 6 1 11 -4 11 -4 -1 -30 -5 -58 -8z"/>
<path d="M673 3643 c-26 -3 -43 -9 -43 -17 0 -7 -23 -18 -54 -25 -30 -7 -74
-25 -97 -41 -24 -16 -47 -26 -52 -23 -12 7 -97 -66 -97 -83 0 -8 -33 -52 -72
-98 -156 -177 -179 -207 -198 -248 -23 -53 -16 -63 17 -23 37 45 80 89 155
162 27 26 35 40 28 48 -7 9 -5 17 7 26 15 12 16 12 10 -3 -9 -25 6 -22 32 6
16 17 19 25 10 28 -7 2 25 29 72 60 81 54 110 70 174 101 17 8 41 26 54 41 14
14 35 26 49 26 19 0 23 4 19 20 -3 14 0 20 11 22 37 3 79 -3 118 -18 34 -12
43 -21 48 -46 9 -45 0 -46 -38 -5 -19 20 -41 37 -50 37 -10 0 -14 -5 -11 -10
3 -6 -1 -13 -9 -16 -13 -5 -11 -10 10 -26 14 -11 23 -22 21 -24 -2 -3 -32 3
-66 12 -67 17 -82 14 -61 -11 11 -13 7 -15 -26 -15 l-39 -1 28 -15 c36 -19 35
-35 -2 -28 -23 5 -32 2 -43 -15 -7 -12 -21 -21 -30 -21 -10 0 -18 -7 -18 -15
0 -11 9 -13 43 -9 32 5 46 2 56 -10 15 -18 12 -19 -41 -16 -22 1 -38 -3 -38
-9 0 -6 11 -11 25 -11 14 0 25 -4 25 -10 0 -16 -50 -12 -56 5 -4 10 -14 13
-29 9 -19 -5 -23 -2 -19 13 2 10 0 24 -5 32 -13 21 -32 3 -25 -24 5 -20 0 -26
-31 -39 -21 -9 -48 -16 -61 -16 -17 0 -27 -8 -34 -24 -5 -14 -29 -40 -54 -58
-34 -24 -45 -38 -42 -53 3 -11 -2 -38 -10 -60 -7 -22 -14 -66 -14 -97 0 -48
-3 -58 -17 -58 -16 0 -16 -1 0 -12 26 -21 39 -64 22 -78 -19 -16 -34 -5 -28
20 8 30 -13 24 -37 -10 -21 -29 -40 -110 -27 -110 4 0 14 14 22 31 25 47 28
28 6 -30 -17 -42 -20 -72 -19 -168 l1 -118 -31 -20 c-38 -25 -41 -38 -6 -29
19 5 25 4 20 -5 -10 -16 13 -83 27 -78 23 7 32 36 19 58 -10 15 -10 28 -3 52
6 18 12 71 13 119 3 85 4 88 30 97 14 5 29 7 31 4 3 -2 10 5 17 16 10 20 40
30 40 13 0 -5 -22 -31 -49 -59 -44 -46 -49 -56 -54 -109 -8 -73 -8 -183 -1
-205 3 -11 12 -15 24 -12 28 8 25 -12 -6 -34 -25 -19 -26 -21 -13 -56 7 -20
17 -37 22 -37 5 0 7 7 3 15 -5 13 -2 13 19 -1 20 -13 25 -25 25 -60 0 -45 2
-48 33 -35 18 7 63 100 74 151 5 24 5 25 -11 5 -18 -24 -20 -16 -4 22 17 43
16 123 -2 123 -12 0 -15 13 -14 60 1 52 -1 58 -14 47 -13 -10 -14 -9 -4 10 7
12 12 40 12 62 0 30 5 43 20 51 26 14 25 28 -2 32 -20 3 -23 9 -23 43 0 32 4
40 20 43 11 2 30 13 43 25 20 19 21 22 6 30 -10 6 -20 5 -27 -2 -6 -6 -18 -11
-26 -11 -9 1 5 12 32 26 52 27 56 34 27 52 -27 17 -25 32 5 32 26 0 33 18 14
37 -7 7 -2 14 19 21 28 9 63 52 45 52 -4 1 3 10 16 20 18 15 19 20 7 20 -9 0
-16 5 -16 11 0 6 12 9 28 7 21 -2 26 1 24 15 -2 9 1 17 6 17 5 0 12 9 15 20 4
17 11 19 31 14 32 -8 34 9 4 25 -20 10 -17 11 20 6 41 -5 42 -4 32 15 -12 23
-6 40 15 40 7 0 15 6 17 12 3 9 11 9 29 -3 22 -14 26 -14 49 0 40 25 67 56 62
71 -3 9 1 11 12 7 11 -4 19 -1 23 10 5 14 10 11 31 -13 l24 -29 -6 28 c-3 15
-9 38 -12 52 -8 31 12 58 37 50 26 -9 24 14 -4 56 -41 61 -41 63 0 30 23 -18
47 -46 53 -62 17 -40 37 -36 43 9 5 35 2 40 -60 101 -55 53 -70 62 -92 58 -14
-3 -55 1 -91 8 -36 8 -67 14 -70 13 -3 -1 -24 -3 -47 -5z m-18 -353 c3 -5 1
-10 -4 -10 -6 0 -11 5 -11 10 0 6 2 10 4 10 3 0 8 -4 11 -10z m-220 -20 c4 -6
-10 -10 -34 -10 -23 0 -41 5 -41 10 0 6 15 10 34 10 19 0 38 -4 41 -10z m-89
-59 c-3 -5 -16 -11 -28 -14 -22 -6 -22 -5 -4 8 22 17 40 20 32 6z m-11 -53
c-1 -35 -14 -66 -30 -72 -11 -4 -15 2 -15 18 0 14 -3 31 -6 40 -4 11 2 19 17
25 34 14 35 13 34 -11z m-65 -128 c10 -18 4 -77 -7 -66 -8 8 -21 75 -15 80 8
9 10 8 22 -14z m75 0 c-3 -5 -10 -10 -16 -10 -5 0 -9 5 -9 10 0 6 7 10 16 10
8 0 12 -4 9 -10z m-91 -269 c-16 -15 -16 -15 -9 4 4 11 10 29 13 40 6 18 7 18
10 -4 2 -13 -4 -31 -14 -40z"/>
<path d="M1968 3616 c-28 -23 -28 -24 -9 -47 10 -13 21 -31 24 -39 4 -11 6 -9
6 6 1 11 4 24 8 28 9 9 12 76 4 76 -3 0 -18 -11 -33 -24z"/>
<path d="M1606 3613 c-3 -4 11 -25 31 -46 37 -39 37 -39 6 -19 -66 46 -71 21
-7 -43 29 -30 44 -52 40 -62 -9 -23 15 -93 32 -93 8 0 12 6 9 13 -2 6 -8 23
-12 36 l-7 24 27 -21 c16 -12 30 -21 31 -19 8 8 -36 103 -55 118 -13 10 -17
20 -11 24 12 8 1 30 -34 68 -26 28 -37 32 -50 20z"/>
<path d="M2067 3603 c-4 -3 -7 -13 -7 -21 0 -12 3 -12 15 -2 8 7 15 16 15 21
0 11 -14 12 -23 2z"/>
<path d="M2020 3580 c0 -5 5 -10 10 -10 6 0 10 5 10 10 0 6 -4 10 -10 10 -5 0
-10 -4 -10 -10z"/>
<path d="M2097 3576 c-3 -8 -16 -16 -29 -18 -18 -2 -24 -10 -26 -37 -2 -21 0
-31 7 -26 15 9 14 -1 -4 -35 -14 -27 -13 -30 9 -47 16 -13 21 -24 16 -34 -9
-15 18 -80 36 -86 5 -2 18 12 27 32 13 26 23 35 42 35 24 0 27 3 29 33 1 6 20
24 43 40 51 32 96 34 198 8 70 -18 92 -18 65 0 -29 18 -116 41 -173 45 -32 2
-62 6 -67 9 -4 3 -13 -2 -20 -10 -7 -8 -21 -15 -32 -15 -15 0 -17 3 -8 19 15
29 13 32 -16 21 -39 -15 -42 -13 -63 35 -21 49 -26 53 -34 31z"/>
<path d="M2306 3566 c8 -22 36 -30 32 -9 -2 10 -11 19 -21 21 -12 2 -15 -1
-11 -12z"/>
<path d="M326 3544 c-4 -10 -1 -14 6 -12 15 5 23 28 10 28 -5 0 -13 -7 -16
-16z"/>
<path d="M1470 3549 c0 -12 29 -38 43 -39 14 0 7 23 -10 36 -22 17 -33 17 -33
3z"/>
<path d="M2195 3540 c4 -6 11 -8 16 -5 14 9 11 15 -7 15 -8 0 -12 -5 -9 -10z"/>
<path d="M2005 3521 c-3 -5 -1 -12 5 -16 5 -3 10 1 10 9 0 18 -6 21 -15 7z"/>
<path d="M1520 3488 c0 -18 18 -34 28 -24 3 4 -2 14 -11 23 -16 16 -17 16 -17
1z"/>
<path d="M1550 3440 c0 -5 5 -10 10 -10 6 0 10 5 10 10 0 6 -4 10 -10 10 -5 0
-10 -4 -10 -10z"/>
<path d="M1280 3426 c0 -18 24 -65 31 -60 5 3 2 18 -6 35 -13 25 -25 37 -25
25z"/>
<path d="M2345 3420 c3 -5 10 -10 16 -10 5 0 9 5 9 10 0 6 -7 10 -16 10 -8 0
-12 -4 -9 -10z"/>
<path d="M1570 3420 c-7 -26 -7 -193 -1 -216 l8 -29 8 28 c9 33 24 19 25 -23
l1 -25 11 25 c15 37 2 128 -26 190 -14 30 -25 53 -26 50z"/>
<path d="M2570 3410 c0 -5 5 -10 10 -10 6 0 10 5 10 10 0 6 -4 10 -10 10 -5 0
-10 -4 -10 -10z"/>
<path d="M2245 3400 c3 -5 8 -10 11 -10 2 0 4 5 4 10 0 6 -5 10 -11 10 -5 0
-7 -4 -4 -10z"/>
<path d="M2342 3380 c-44 -10 -70 -35 -30 -28 15 3 25 1 22 -3 -3 -5 2 -9 10
-9 9 0 15 6 14 13 -2 7 10 13 27 15 41 5 57 22 20 21 -17 -1 -45 -5 -63 -9z"/>
<path d="M390 3370 c0 -5 5 -10 10 -10 6 0 10 5 10 10 0 6 -4 10 -10 10 -5 0
-10 -4 -10 -10z"/>
<path d="M2420 3350 c-28 -21 -22 -37 8 -21 26 14 92 14 92 1 0 -5 20 -19 45
-31 25 -12 62 -41 82 -65 39 -48 66 -60 38 -17 -24 36 -65 70 -139 115 -69 43
-90 46 -126 18z"/>
<path d="M2626 3356 c3 -9 11 -16 16 -16 13 0 5 23 -10 28 -7 2 -10 -2 -6 -12z"/>
<path d="M2177 3314 c-39 -20 -46 -28 -37 -39 6 -8 8 -20 4 -26 -5 -9 1 -10
24 -6 28 6 33 3 38 -18 8 -30 23 -31 99 -5 32 11 60 18 62 16 2 -2 -20 -16
-49 -31 -81 -41 -93 -52 -79 -69 10 -12 8 -15 -11 -18 l-23 -5 25 -11 c25 -11
25 -11 2 -11 -14 -1 -21 -5 -16 -12 4 -7 23 -9 48 -6 22 3 35 4 29 1 -13 -6
-19 -34 -7 -34 3 0 14 5 25 10 14 8 27 7 48 -4 27 -14 41 -13 41 5 0 5 -8 6
-17 2 -13 -4 -15 -3 -8 5 6 5 19 12 30 14 13 2 20 11 19 26 0 12 1 22 4 22 2
0 24 -14 49 -30 60 -41 104 -63 111 -56 7 8 42 -24 42 -39 0 -15 89 -90 97
-82 3 3 -5 20 -18 38 -18 26 -20 35 -11 50 10 15 4 27 -38 78 -53 63 -88 93
-101 85 -5 -2 -6 -11 -2 -19 7 -20 -28 -20 -95 0 -35 11 -65 13 -90 8 -52 -10
-65 -10 -69 3 -4 12 72 48 135 64 53 14 57 35 5 26 -28 -5 -34 -4 -23 3 28 19
61 12 87 -19 30 -36 41 -37 52 -8 6 17 2 27 -21 46 -28 23 -34 24 -114 18 -46
-4 -84 -4 -84 0 0 4 7 16 17 26 22 25 0 24 -43 -3 -33 -20 -61 -18 -48 3 7 10
-13 28 -31 27 -5 0 -32 -11 -58 -25z m202 -220 c1 -1 0 -7 -4 -13 -6 -11 -65
12 -65 25 0 5 61 -5 69 -12z"/>
<path d="M1660 3289 c0 -5 5 -7 10 -4 6 3 10 8 10 11 0 2 -4 4 -10 4 -5 0 -10
-5 -10 -11z"/>
<path d="M1240 3220 c0 -6 7 -10 15 -10 8 0 15 -5 15 -10 0 -6 12 -16 26 -22
29 -13 78 -107 68 -131 -3 -10 2 -17 14 -21 11 -4 23 -18 26 -32 10 -38 31
-23 30 20 -2 44 -72 155 -114 179 -43 26 -80 38 -80 27z"/>
<path d="M181 3162 c-27 -39 -25 -47 8 -23 14 11 22 25 19 37 -3 16 -7 14 -27
-14z"/>
<path d="M2455 3180 c3 -5 17 -10 31 -10 13 0 24 5 24 10 0 6 -14 10 -31 10
-17 0 -28 -4 -24 -10z"/>
<path d="M2612 3171 c2 -7 7 -12 11 -12 12 1 9 15 -3 20 -7 2 -11 -2 -8 -8z"/>
<path d="M1570 3154 c0 -8 5 -12 10 -9 6 3 10 10 10 16 0 5 -4 9 -10 9 -5 0
-10 -7 -10 -16z"/>
<path d="M161 3091 c-6 -10 -21 -21 -33 -24 -21 -6 -30 -21 -76 -118 -2 -4 6
-9 18 -12 13 -3 25 2 35 16 8 11 12 23 9 26 -3 3 -9 0 -13 -8 -7 -10 -10 -9
-14 3 -4 10 -1 16 8 16 8 0 15 7 15 15 0 9 6 12 15 9 9 -4 15 0 15 10 0 9 4
16 10 16 8 0 40 51 40 65 0 13 -20 3 -29 -14z"/>
<path d="M2456 3041 c-3 -5 1 -11 9 -15 9 -3 15 0 15 9 0 16 -16 20 -24 6z"/>
<path d="M2301 2997 c-14 -6 -26 -16 -28 -22 -4 -15 15 -41 24 -31 4 5 2 11
-6 14 -9 3 -2 9 18 18 17 7 31 18 31 24 0 13 -9 13 -39 -3z"/>
<path d="M2440 2981 c0 -10 30 -24 37 -17 3 3 2 9 -2 15 -8 13 -35 15 -35 2z"/>
<path d="M2530 2967 c0 -21 6 -25 40 -31 22 -3 48 -15 58 -26 9 -11 32 -35 50
-55 38 -41 40 -55 9 -55 -12 0 -28 -9 -35 -20 -11 -17 -9 -24 8 -42 11 -12 20
-25 20 -30 0 -11 -48 11 -91 42 -46 33 -112 55 -136 46 -14 -6 -7 -13 36 -37
71 -38 74 -43 24 -36 -33 4 -43 2 -43 -9 0 -18 -14 -18 -50 1 -21 11 -29 22
-27 37 1 11 -4 23 -10 25 -7 3 -13 -2 -13 -11 0 -18 -8 -20 -30 -7 -28 18 -30
0 -2 -25 16 -16 20 -24 10 -20 -9 2 -18 0 -20 -6 -2 -6 -18 3 -35 21 -17 17
-35 31 -39 31 -12 0 4 -111 19 -129 17 -18 77 -124 77 -134 0 -4 -7 -7 -15 -7
-8 0 -15 8 -15 18 0 11 -9 27 -20 37 -20 18 -21 18 -34 0 -13 -18 -14 -17 -30
13 -9 18 -23 32 -32 32 -8 0 -17 7 -20 15 -4 8 -13 15 -20 15 -11 0 -8 -12 12
-47 15 -27 34 -56 42 -66 9 -9 16 -29 17 -45 1 -15 5 -36 10 -46 8 -19 8 -19
-15 -3 -30 21 -41 22 -34 2 4 -8 1 -15 -5 -15 -6 0 -11 -4 -11 -10 0 -5 13
-10 29 -10 24 0 28 -3 24 -20 -6 -22 -28 -27 -39 -9 -4 6 -19 9 -36 5 -16 -3
-38 0 -49 7 -18 10 -23 9 -33 -7 -6 -11 -26 -36 -43 -55 l-32 -36 -1 28 c0 32
-10 34 -33 9 -12 -13 -26 -17 -47 -14 -16 2 -30 0 -30 -5 0 -6 -17 -9 -37 -8
-27 2 -43 10 -60 31 -13 16 -23 24 -23 18 0 -18 -50 -63 -64 -58 -6 2 -23 -7
-36 -21 -13 -14 -34 -25 -46 -25 -17 0 -21 -4 -17 -20 6 -24 7 -24 41 -6 31
16 180 19 200 3 8 -7 12 -5 12 7 0 10 4 15 9 12 26 -17 -25 -82 -58 -73 -10 2
-23 2 -28 -2 -15 -9 -25 -78 -13 -86 17 -11 12 -35 -7 -28 -13 5 -15 3 -8 -13
4 -10 10 -29 12 -41 7 -29 17 -29 43 -1 11 12 20 19 20 15 0 -4 10 3 21 14 12
12 23 36 24 53 2 27 7 31 34 34 20 2 33 -2 37 -11 6 -17 -17 -67 -40 -86 -9
-7 -13 -17 -10 -23 3 -5 0 -16 -8 -25 -12 -15 -10 -16 17 -9 17 5 60 9 98 11
50 2 67 0 67 -10 0 -17 -43 -32 -48 -17 -3 11 -44 4 -53 -10 -3 -5 -41 -15
-85 -22 -43 -7 -94 -20 -112 -30 -21 -11 -50 -16 -80 -14 -44 3 -45 4 -22 14
14 7 50 17 80 24 62 14 95 31 110 59 15 30 -3 33 -41 7 -24 -16 -56 -26 -105
-31 -87 -8 -100 -15 -85 -44 8 -14 8 -21 1 -21 -5 0 -10 4 -10 10 0 6 -11 5
-26 -2 -22 -10 -28 -10 -40 6 -7 11 -11 23 -8 27 3 5 -2 9 -11 9 -21 0 -31
-28 -17 -50 5 -9 7 -23 2 -30 -4 -7 -6 -18 -4 -25 3 -6 -3 -29 -12 -50 -15
-37 -17 -38 -30 -20 -8 10 -14 27 -14 36 0 24 -21 69 -32 69 -5 0 -18 -20 -29
-44 -24 -55 -51 -66 -90 -37 -27 20 -31 21 -51 6 -32 -22 -42 -19 -55 16 -15
38 -33 29 -33 -16 0 -33 2 -35 63 -53 61 -19 63 -19 93 -1 l31 19 46 -56 c47
-56 72 -124 49 -132 -9 -3 -9 -9 -1 -24 6 -11 9 -35 6 -52 -4 -23 1 -39 19
-61 19 -24 24 -42 24 -90 0 -35 7 -72 16 -90 11 -21 15 -52 14 -100 -3 -108
-4 -123 -12 -131 -5 -4 -8 -15 -8 -24 0 -9 -12 -33 -27 -53 -25 -32 -34 -36
-91 -42 -49 -6 -60 -10 -52 -20 8 -10 3 -19 -20 -35 -31 -22 -31 -22 -10 -37
19 -14 23 -13 43 13 12 15 25 32 29 38 13 20 119 13 180 -13 45 -19 60 -22 71
-12 17 13 47 5 47 -14 0 -18 -119 -75 -175 -83 -67 -10 -62 -24 10 -28 77 -4
105 -11 105 -27 0 -7 9 -29 20 -50 17 -31 17 -37 5 -37 -8 0 -15 -6 -15 -14 0
-18 -136 -34 -152 -18 -6 6 -21 7 -39 2 -34 -10 -42 -1 -41 44 1 28 -1 29 -12
14 -15 -21 -32 -23 -39 -5 -8 23 -40 -60 -33 -87 6 -23 10 -25 39 -19 17 3 35
10 38 15 4 6 23 5 48 -3 33 -10 47 -10 62 -1 18 12 73 5 122 -14 12 -4 17 -1
17 11 0 17 1 17 21 -1 24 -22 54 -9 54 24 0 11 11 32 25 47 15 16 24 36 22 49
-2 12 2 35 8 50 9 26 13 28 46 21 20 -3 49 -3 65 0 26 6 29 11 29 43 0 46 13
68 31 56 8 -5 22 -7 32 -6 49 9 59 -44 26 -135 -12 -32 -26 -69 -31 -83 -8
-22 -10 -23 -19 -7 -6 9 -17 17 -26 17 -9 0 -28 10 -41 23 l-24 22 7 -33 c6
-31 5 -33 -14 -27 -12 3 -21 3 -21 -2 0 -4 -5 -15 -10 -23 -8 -13 -11 -12 -25
5 -15 20 -15 20 -8 0 3 -11 10 -26 16 -32 7 -10 1 -13 -26 -13 -34 0 -36 -2
-44 -43 -7 -32 -15 -45 -37 -56 -24 -11 -30 -11 -38 0 -7 10 -7 7 -3 -8 3 -12
2 -31 -4 -41 -7 -13 -7 -22 1 -30 8 -8 0 -24 -33 -59 -84 -92 -131 -115 -172
-83 -13 11 -28 15 -33 11 -5 -5 -33 -16 -63 -26 -41 -14 -58 -15 -77 -6 -39
18 -104 14 -104 -5 0 -13 7 -15 35 -11 25 4 37 1 43 -9 7 -12 38 -16 160 -18
84 -2 152 -1 152 3 1 22 18 31 44 21 23 -8 41 -3 131 40 88 42 118 63 184 128
43 42 114 128 157 191 44 63 96 133 118 155 43 45 84 107 118 176 l22 45 7
-55 c8 -57 4 -74 -12 -64 -6 3 -5 12 3 22 7 9 -4 3 -25 -13 -52 -41 -70 -74
-51 -99 13 -18 14 -18 46 6 28 20 37 23 61 14 l28 -10 -3 -171 c-2 -93 -7
-177 -11 -186 -6 -11 -1 -21 15 -31 24 -16 24 -15 25 25 2 50 19 69 37 44 20
-26 34 -21 41 16 3 17 11 42 17 54 13 26 4 53 -16 53 -10 0 -13 -6 -10 -17 5
-15 3 -15 -10 1 -17 21 -22 86 -6 86 19 0 58 52 53 71 -3 11 0 26 7 34 11 13
14 13 27 0 17 -18 29 -19 38 -4 4 5 -7 15 -24 22 -24 9 -31 17 -31 37 l1 25
19 -23 c11 -14 21 -18 25 -12 5 8 11 7 21 -1 11 -9 15 -7 20 6 5 11 1 21 -9
27 -10 5 -17 16 -17 25 0 11 -6 14 -21 10 -16 -4 -19 -3 -11 5 11 11 3 25 -32
56 -53 46 -124 119 -134 138 -9 16 -5 30 19 74 16 29 29 63 29 76 0 12 14 59
30 104 17 45 30 89 30 98 0 9 5 34 11 55 8 30 15 37 34 37 26 0 55 33 55 63 0
10 11 40 25 67 14 27 25 58 25 69 0 11 5 23 10 26 14 8 13 58 -2 90 -11 24 -9
29 19 51 19 14 34 38 38 57 4 17 16 47 26 65 11 19 18 49 17 70 -1 37 -1 37
-5 5 -5 -38 -23 -45 -23 -8 0 13 -8 28 -17 34 -17 9 -17 11 0 39 9 17 17 39
17 50 0 11 7 25 15 32 8 7 15 18 15 26 0 7 10 19 22 25 14 8 18 14 10 17 -6 2
-12 13 -11 25 0 21 1 21 8 3 5 -14 10 -16 15 -7 4 6 0 23 -9 37 -16 25 -26 26
-65 10 -12 -5 -15 3 -15 41 0 27 -4 58 -8 71 -7 19 -5 22 16 22 20 0 28 -9 41
-40 9 -22 16 -47 16 -55 0 -8 6 -15 14 -15 11 0 10 11 -6 57 -10 32 -23 62
-28 67 -15 15 -12 46 5 46 13 0 15 22 10 171 -4 142 -9 182 -26 230 -18 49
-26 59 -45 59 -13 0 -39 14 -57 30 -19 17 -39 30 -45 30 -6 0 -17 6 -24 14 -8
7 -24 17 -36 20 -19 6 -22 4 -22 -17z m-230 -289 c0 -14 -18 -9 -24 8 -11 28
-6 39 9 20 8 -11 15 -23 15 -28z m223 1 c30 -14 34 -65 5 -72 -27 -7 -22 -24
12 -42 39 -20 57 -20 40 0 -10 12 -10 15 2 15 8 0 22 -15 31 -34 l16 -35 -41
15 c-49 17 -51 17 -46 2 4 -12 -20 -45 -26 -37 -24 32 -47 83 -42 95 4 9 -8
24 -34 42 -22 15 -39 33 -40 41 0 11 4 11 18 -2 10 -10 34 -17 53 -17 34 1 34
1 10 14 -18 10 -20 15 -10 19 21 8 26 8 52 -4z m227 -37 c0 -15 -2 -15 -10 -2
-13 20 -13 33 0 25 6 -3 10 -14 10 -23z m-444 -149 c7 -10 13 -27 13 -38 1
-18 -1 -18 -19 5 -19 25 -26 50 -14 50 4 0 13 -8 20 -17z m113 -38 c11 -19 17
-35 13 -35 -7 0 -52 65 -52 75 0 13 19 -7 39 -40z m-54 15 c3 -5 1 -10 -4 -10
-6 0 -11 5 -11 10 0 6 2 10 4 10 3 0 8 -4 11 -10z m178 -19 c-4 -4 -11 -10
-15 -15 -5 -5 -8 3 -8 19 0 24 2 26 15 15 9 -7 12 -16 8 -19z m-189 -72 c14
12 89 -71 111 -124 20 -45 19 -100 -1 -119 -14 -15 -14 -16 0 -16 19 0 22 -44
6 -85 -8 -22 -12 -24 -29 -13 -15 9 -17 16 -10 30 12 23 -18 118 -37 118 -18
0 -18 -14 1 -30 11 -9 13 -16 6 -23 -17 -17 -23 -4 -52 106 -20 78 -24 109
-16 122 7 14 7 20 -1 23 -7 2 -9 9 -5 15 5 8 8 7 11 -1 3 -9 8 -10 16 -3z
m107 -30 c13 -26 7 -24 -22 7 -17 19 -19 23 -6 18 10 -3 22 -15 28 -25z m-671
-69 c0 -5 -4 -10 -10 -10 -5 0 -10 5 -10 10 0 6 5 10 10 10 6 0 10 -4 10 -10z
m350 -21 c0 -5 -7 -9 -15 -9 -9 0 -12 6 -9 15 6 15 24 11 24 -6z m10 -268 c14
-28 12 -64 -5 -87 -14 -18 -14 -18 -15 10 0 16 -7 37 -16 47 -18 21 -12 49 10
49 9 0 20 -9 26 -19z m206 -128 c20 -7 18 -82 -3 -105 -9 -10 -27 -18 -40 -18
-31 0 -30 30 2 60 26 24 34 47 13 34 -17 -11 -58 -14 -58 -6 0 11 31 55 49 70
14 11 16 10 19 -8 2 -12 10 -24 18 -27z m159 19 c0 -18 -20 -15 -23 4 -3 10 1
15 10 12 7 -3 13 -10 13 -16z m-630 -32 c3 -5 1 -10 -4 -10 -6 0 -11 5 -11 10
0 6 2 10 4 10 3 0 8 -4 11 -10z m-35 -115 c0 -8 -7 -15 -15 -15 -8 0 -15 -4
-15 -9 0 -5 7 -14 15 -21 8 -7 15 -18 15 -26 0 -7 10 -14 22 -16 31 -4 35 -28
4 -28 -13 0 -26 -3 -28 -7 -4 -8 56 -71 70 -74 52 -12 61 -28 40 -74 -14 -32
-4 -43 20 -22 10 10 27 17 37 17 13 0 15 3 7 13 -15 18 -4 57 14 50 9 -3 14 2
14 13 0 14 17 25 60 42 33 13 65 20 70 17 6 -3 10 -22 10 -41 0 -32 -4 -36
-67 -67 -36 -17 -83 -47 -102 -65 -20 -17 -42 -30 -49 -27 -7 2 -15 -2 -19
-11 -8 -21 6 -32 17 -14 8 13 10 12 10 -2 0 -10 -14 -33 -31 -53 -29 -33 -30
-37 -16 -53 23 -25 9 -74 -24 -82 -24 -6 -28 -19 -14 -52 4 -10 3 -18 -3 -18
-36 0 -158 161 -186 246 -9 28 -28 62 -42 75 -22 21 -24 30 -21 86 1 34 6 65
10 69 4 4 7 20 7 35 0 30 15 39 66 39 30 0 34 3 34 25 0 14 9 34 20 45 24 24
70 27 70 5z m54 -33 c5 -3 1 -9 -8 -14 -11 -6 -22 -6 -31 2 -29 24 1 33 39 12z
m496 -399 c16 -21 18 -29 8 -31 -7 -3 -21 -14 -30 -26 -15 -17 -17 -33 -12
-92 5 -55 3 -78 -9 -100 -8 -16 -18 -37 -21 -47 -3 -10 -11 -15 -17 -12 -6 4
-8 13 -5 21 4 11 2 12 -14 4 -28 -15 -31 -13 -19 17 6 15 11 53 12 85 2 48 6
59 25 69 14 8 20 19 17 29 -3 10 1 23 10 30 8 7 15 28 15 46 0 41 11 43 40 7z
m-657 -155 c35 -51 36 -52 19 -81 -28 -48 -78 -80 -112 -72 -21 5 -30 13 -30
26 0 21 15 25 26 7 11 -18 22 19 23 77 1 63 10 95 25 95 7 0 29 -23 49 -52z
m540 -230 c-6 -32 -15 -35 -33 -13 -10 13 -9 19 5 35 23 25 35 14 28 -22z
m-583 -608 c0 -5 -5 -10 -11 -10 -5 0 -7 5 -4 10 3 6 8 10 11 10 2 0 4 -4 4
-10z"/>
<path d="M2330 1789 c0 -5 5 -7 10 -4 6 3 10 8 10 11 0 2 -4 4 -10 4 -5 0 -10
-5 -10 -11z"/>
<path d="M1670 1510 c0 -14 38 -32 45 -21 3 6 -3 15 -14 20 -24 14 -31 14 -31
1z"/>
<path d="M1915 1490 c19 -21 35 -18 35 6 0 9 -10 14 -27 14 -25 0 -26 -1 -8
-20z"/>
<path d="M1846 1484 c-9 -24 -7 -28 9 -14 17 14 20 30 6 30 -5 0 -12 -7 -15
-16z"/>
<path d="M1981 1414 c0 -11 3 -14 6 -6 3 7 2 16 -1 19 -3 4 -6 -2 -5 -13z"/>
<path d="M2404 2938 c-3 -4 2 -8 10 -8 9 0 16 -4 16 -10 0 -5 9 -10 20 -10 11
0 20 -4 20 -8 0 -5 16 -16 35 -25 19 -9 35 -21 35 -27 0 -5 11 -10 25 -10 15
0 25 -6 25 -14 0 -20 12 -26 39 -19 21 5 21 6 -11 34 -18 15 -40 28 -48 29 -8
0 -26 9 -40 20 -14 11 -30 20 -36 20 -7 0 -14 6 -17 14 -6 15 -65 27 -73 14z"/>
<path d="M1420 2924 c0 -8 5 -12 10 -9 6 3 10 10 10 16 0 5 -4 9 -10 9 -5 0
-10 -7 -10 -16z"/>
<path d="M2276 2922 c-3 -6 1 -13 10 -16 24 -9 54 -7 54 4 0 6 -6 10 -14 10
-8 0 -21 3 -29 6 -8 3 -18 1 -21 -4z"/>
<path d="M2440 2842 c0 -10 65 -42 83 -42 20 1 -43 50 -64 50 -10 0 -19 -4
-19 -8z"/>
<path d="M2650 2840 c0 -5 5 -10 10 -10 6 0 10 5 10 10 0 6 -4 10 -10 10 -5 0
-10 -4 -10 -10z"/>
<path d="M36 2801 c-4 -7 -5 -15 -2 -18 9 -9 19 4 14 18 -4 11 -6 11 -12 0z"/>
<path d="M51 2755 c-24 -63 -28 -109 -8 -103 6 3 13 15 15 29 2 13 10 43 18
67 16 50 17 62 5 62 -5 0 -19 -25 -30 -55z"/>
<path d="M1710 2731 c0 -12 5 -21 10 -21 6 0 10 6 10 14 0 8 -4 18 -10 21 -5
3 -10 -3 -10 -14z"/>
<path d="M91 2698 c-9 -24 -4 -55 10 -64 5 -3 9 15 9 40 0 50 -6 58 -19 24z"/>
<path d="M2000 2613 c0 -23 5 -45 10 -48 13 -8 13 55 0 75 -7 11 -10 4 -10
-27z"/>
<path d="M2040 2601 c0 -5 5 -13 10 -16 6 -3 10 -2 10 4 0 5 -4 13 -10 16 -5
3 -10 2 -10 -4z"/>
<path d="M2070 2577 c0 -13 72 -87 85 -87 3 0 5 14 5 31 0 16 -4 28 -9 25 -5
-3 -11 4 -14 15 -4 15 -11 20 -23 15 -9 -3 -23 -1 -30 5 -11 9 -14 8 -14 -4z"/>
<path d="M25 2561 c-3 -5 -1 -12 5 -16 5 -3 10 1 10 9 0 18 -6 21 -15 7z"/>
<path d="M75 2531 c-3 -5 -1 -12 5 -16 5 -3 10 1 10 9 0 18 -6 21 -15 7z"/>
<path d="M2130 2469 c0 -5 5 -7 10 -4 6 3 10 -3 10 -15 0 -12 5 -18 10 -15 19
12 11 45 -10 45 -11 0 -20 -5 -20 -11z"/>
<path d="M1796 2445 c-15 -23 -15 -27 1 -62 10 -21 24 -38 31 -37 6 1 26 2 42
3 20 0 30 6 30 16 0 12 -7 14 -27 9 -25 -7 -27 -6 -14 9 11 15 11 17 -2 17 -9
0 -18 12 -22 30 -9 40 -20 45 -39 15z"/>
<path d="M1862 2440 c-11 -18 -10 -20 12 -20 19 0 23 4 19 20 -3 11 -8 20 -12
20 -3 0 -12 -9 -19 -20z"/>
<path d="M1465 2310 c-4 -6 -3 -16 3 -22 6 -6 12 -6 17 2 4 6 3 16 -3 22 -6 6
-12 6 -17 -2z"/>
<path d="M150 2229 c7 -11 14 -18 17 -15 8 8 -5 36 -17 36 -7 0 -7 -6 0 -21z"/>
<path d="M1311 2221 l-23 -18 31 5 c17 2 31 8 31 13 0 17 -16 17 -39 0z"/>
<path d="M128 2194 c-18 -18 -9 -58 43 -186 10 -26 19 -60 19 -76 0 -40 8 -44
41 -20 31 23 39 62 14 72 -8 3 -15 13 -15 23 0 10 -9 37 -20 61 -16 35 -24 43
-42 40 -21 -3 -24 2 -28 45 -3 27 -8 45 -12 41z"/>
<path d="M360 2190 c0 -5 5 -10 10 -10 6 0 10 5 10 10 0 6 -4 10 -10 10 -5 0
-10 -4 -10 -10z"/>
<path d="M225 2158 c9 -29 35 -71 41 -65 2 2 1 22 -4 43 -5 25 -14 40 -26 42
-15 3 -17 -1 -11 -20z"/>
<path d="M350 2138 c0 -32 15 -45 24 -21 4 9 0 23 -9 32 -13 14 -15 13 -15
-11z"/>
<path d="M280 2069 c0 -22 52 -99 67 -99 18 0 16 17 -2 24 -8 3 -15 14 -15 24
0 10 -11 29 -25 42 -18 17 -25 19 -25 9z"/>
<path d="M1305 2070 c-3 -5 -2 -10 4 -10 5 0 13 5 16 10 3 6 2 10 -4 10 -5 0
-13 -4 -16 -10z"/>
<path d="M2760 2010 c0 -5 5 -10 10 -10 6 0 10 5 10 10 0 6 -4 10 -10 10 -5 0
-10 -4 -10 -10z"/>
<path d="M1070 1978 c0 -19 2 -20 10 -8 13 19 13 30 0 30 -5 0 -10 -10 -10
-22z"/>
<path d="M267 1919 c-3 -11 -3 -35 0 -53 3 -20 1 -36 -6 -40 -17 -11 -14 -101
5 -117 8 -7 13 -21 11 -30 -3 -10 1 -20 9 -23 8 -3 14 -17 14 -31 0 -34 17
-65 35 -65 9 0 15 10 15 25 0 18 4 23 16 18 10 -3 13 -11 8 -22 -4 -9 -9 -31
-12 -49 -2 -18 -8 -35 -13 -38 -14 -8 -10 -22 7 -26 17 -3 37 -50 59 -135 14
-57 12 -63 -23 -63 -15 0 -22 -5 -19 -12 2 -7 16 -12 31 -11 14 1 26 -2 26 -8
0 -5 6 -9 14 -9 15 0 30 -45 21 -61 -4 -5 0 -12 8 -15 9 -3 13 -13 10 -25 -4
-15 -2 -18 12 -12 15 5 17 2 13 -13 -14 -48 -14 -49 21 -52 30 -3 33 -1 28 17
-3 12 3 31 13 44 13 16 16 28 9 38 -5 8 -21 52 -35 99 -14 47 -35 93 -45 103
-24 22 -24 30 -1 23 38 -12 11 109 -36 166 -12 14 -12 21 -2 33 10 12 7 24
-20 65 -17 27 -29 54 -25 60 3 5 -1 20 -9 32 -20 28 -20 38 -1 38 22 0 18 18
-6 25 -26 9 -39 -8 -39 -53 0 -21 -4 -31 -11 -26 -7 4 -10 -4 -8 -25 2 -17 -1
-31 -6 -31 -6 0 -10 41 -10 98 0 73 -5 107 -19 140 -21 47 -31 52 -39 21z"/>
<path d="M1054 1901 c-18 -11 -35 -24 -38 -29 -10 -16 -143 -54 -165 -47 -11
3 -22 1 -26 -5 -3 -5 0 -10 7 -10 7 0 5 -5 -6 -12 -13 -7 -29 -7 -56 1 -21 6
-50 8 -66 5 -16 -3 -44 1 -63 9 -30 13 -32 16 -16 24 19 11 14 17 -27 27 -31
7 -33 4 -17 -27 10 -21 10 -21 -5 -3 -9 11 -16 22 -16 25 0 7 -50 31 -63 31
-5 0 9 -20 32 -45 22 -24 41 -49 41 -55 0 -15 -26 -12 -40 5 -20 24 -38 18
-33 -9 4 -21 1 -25 -26 -28 l-31 -3 31 -33 c24 -26 37 -32 53 -27 11 4 33 7
49 7 15 -1 27 4 27 10 0 6 11 8 26 5 16 -3 28 0 31 9 6 16 66 18 98 4 15 -6 8
-9 -27 -9 -31 -1 -48 -5 -48 -13 0 -7 -14 -21 -30 -30 -17 -9 -30 -22 -30 -27
0 -10 15 -13 109 -26 l44 -6 -6 31 c-8 36 6 39 28 7 36 -55 112 -55 155 0 17
22 24 24 43 16 22 -10 21 -11 -13 -32 -19 -11 -39 -23 -45 -26 -6 -3 -5 -7 3
-11 21 -10 13 -25 -18 -35 -19 -7 -30 -18 -30 -30 0 -24 42 -26 93 -4 20 8 46
15 57 15 17 0 19 -4 14 -25 -8 -33 13 -33 45 1 l24 25 -22 23 c-23 24 -19 36
11 36 16 0 15 4 -9 25 -15 13 -23 25 -17 25 18 0 64 -40 64 -56 0 -8 5 -14 10
-14 13 0 13 28 0 82 -5 24 -12 54 -15 68 -8 42 -21 56 -39 41 -13 -11 -14 -9
-5 21 6 18 13 41 16 51 3 11 0 17 -10 17 -9 0 -17 10 -19 25 l-3 25 -31 -19z"/>
<path d="M1292 1865 c-1 -59 -1 -60 14 -32 10 19 12 32 6 40 -6 7 -12 21 -15
32 -2 11 -5 -7 -5 -40z"/>
<path d="M2755 1870 c-3 -5 -1 -10 4 -10 6 0 11 5 11 10 0 6 -2 10 -4 10 -3 0
-8 -4 -11 -10z"/>
<path d="M2740 1784 c-13 -33 -13 -34 5 -34 10 0 15 10 15 30 0 37 -7 38 -20
4z"/>
<path d="M2732 1700 c-10 -17 -10 -20 3 -20 8 0 15 9 15 20 0 11 -1 20 -3 20
-1 0 -8 -9 -15 -20z"/>
<path d="M705 1280 c3 -5 8 -10 11 -10 2 0 4 5 4 10 0 6 -5 10 -11 10 -5 0 -7
-4 -4 -10z"/>
<path d="M740 1191 c-5 -11 -10 -27 -10 -35 0 -9 -6 -16 -14 -16 -7 0 -16 -14
-20 -31 -9 -45 -8 -49 9 -49 9 0 15 9 15 24 0 27 20 51 49 61 30 9 32 32 6 49
-23 15 -25 15 -35 -3z"/>
<path d="M995 1152 c-35 -22 -41 -31 -41 -63 -2 -43 -42 -122 -60 -115 -18 7
-41 -34 -46 -82 -4 -48 8 -50 32 -6 9 16 26 30 38 32 12 2 22 7 22 11 0 4 16
26 36 50 32 36 83 153 84 189 0 18 -20 13 -65 -16z"/>
<path d="M1130 930 c0 -5 5 -10 10 -10 6 0 10 5 10 10 0 6 -4 10 -10 10 -5 0
-10 -4 -10 -10z"/>
<path d="M1182 931 c-11 -6 -10 -10 4 -15 20 -8 32 0 18 14 -5 5 -15 5 -22 1z"/>
<path d="M870 806 c0 -7 7 -33 15 -56 8 -23 15 -57 15 -74 0 -55 14 -59 40
-11 21 38 28 44 55 43 32 -1 95 26 95 42 0 5 -16 17 -36 25 -44 18 -44 18 -44
1 0 -14 -21 -26 -46 -26 -8 0 -28 16 -45 35 -33 37 -49 44 -49 21z"/>
<path d="M582 713 c-24 -42 -67 -93 -78 -93 -17 0 -174 -81 -174 -90 0 -6 -11
-19 -24 -31 -15 -13 -22 -28 -19 -40 4 -13 -2 -22 -21 -30 -14 -7 -26 -18 -26
-26 0 -17 20 -7 83 41 24 19 54 39 66 45 11 6 28 25 36 42 14 27 17 28 31 14
9 -8 24 -15 34 -15 33 0 33 -21 1 -33 -17 -6 -31 -15 -31 -20 0 -5 -6 -4 -14
2 -8 7 -17 8 -20 3 -3 -6 1 -16 10 -23 13 -10 19 -10 37 0 15 10 22 11 25 2 2
-6 14 -8 28 -5 24 6 35 -10 12 -19 -9 -3 -6 -11 10 -26 25 -25 26 -26 11 -52
-8 -16 -7 -25 6 -39 31 -35 74 -140 81 -199 3 -34 16 -74 28 -93 l21 -33 3 38
c2 21 -1 61 -7 88 -14 66 -14 269 1 395 11 98 11 103 -10 129 -12 15 -22 33
-22 40 0 14 -38 65 -49 65 -4 0 -17 -17 -29 -37z m-52 -116 c0 -2 -10 -12 -22
-23 l-23 -19 19 23 c18 21 26 27 26 19z"/>
<path d="M746 685 c-8 -43 -2 -54 22 -38 19 12 18 41 -3 61 -10 11 -14 7 -19
-23z"/>
<path d="M1252 695 c2 -3 37 -11 77 -18 76 -15 108 -5 44 12 -38 11 -131 15
-121 6z"/>
<path d="M770 533 c0 -26 59 -115 70 -108 17 10 12 75 -5 75 -8 0 -15 5 -15
11 0 12 -29 38 -42 39 -5 0 -8 -8 -8 -17z"/>
<path d="M193 485 c-62 -29 -113 -58 -113 -64 0 -13 19 -6 138 53 50 25 92 50
92 56 0 13 12 17 -117 -45z"/>
<path d="M250 460 c0 -5 -5 -9 -11 -7 -6 1 -14 -4 -16 -10 -8 -21 21 -15 35 7
7 12 8 20 2 20 -5 0 -10 -4 -10 -10z"/>
<path d="M390 440 c0 -5 5 -10 10 -10 6 0 10 5 10 10 0 6 -4 10 -10 10 -5 0
-10 -4 -10 -10z"/>
<path d="M475 430 c-3 -5 -1 -10 4 -10 6 0 11 5 11 10 0 6 -2 10 -4 10 -3 0
-8 -4 -11 -10z"/>
<path d="M410 336 c0 -8 9 -17 19 -21 13 -4 17 -12 13 -27 -4 -18 -2 -20 16
-16 15 4 19 2 15 -8 -4 -10 4 -14 27 -14 20 0 29 4 24 11 -3 6 0 16 7 21 11 8
10 9 -3 5 -18 -6 -43 17 -34 31 7 11 -40 25 -54 17 -6 -4 -10 -1 -10 4 0 6 -4
11 -10 11 -5 0 -10 -6 -10 -14z"/>
<path d="M916 335 c-3 -8 5 -21 16 -29 26 -18 32 -15 24 12 -8 25 -33 35 -40
17z"/>
<path d="M2189 282 c-49 -32 -109 -89 -102 -95 15 -15 52 -6 58 14 4 11 9 18
13 15 8 -9 72 55 72 71 0 17 -10 16 -41 -5z"/>
<path d="M238 270 c-49 -26 -56 -40 -20 -40 17 0 37 9 50 23 39 41 28 47 -30
17z"/>
<path d="M966 281 c-4 -7 -5 -15 -2 -18 9 -9 19 4 14 18 -4 11 -6 11 -12 0z"/>
<path d="M345 251 c-6 -10 40 -61 54 -61 4 0 3 16 -3 35 -11 34 -37 47 -51 26z"/>
<path d="M1575 250 c-3 -5 -2 -10 4 -10 5 0 13 5 16 10 3 6 2 10 -4 10 -5 0
-13 -4 -16 -10z"/>
<path d="M550 240 c0 -5 9 -10 20 -10 11 0 20 5 20 10 0 6 -9 10 -20 10 -11 0
-20 -4 -20 -10z"/>
<path d="M500 220 c0 -11 6 -20 14 -20 24 0 28 18 6 30 -17 9 -20 8 -20 -10z"/>
<path d="M600 190 c0 -5 5 -10 10 -10 6 0 10 5 10 10 0 6 -4 10 -10 10 -5 0
-10 -4 -10 -10z"/>
<path d="M468 163 c-21 -14 -38 -32 -38 -39 0 -18 4 -18 43 2 42 22 68 45 61
55 -9 14 -27 9 -66 -18z"/>
<path d="M1863 133 c9 -2 23 -2 30 0 6 3 -1 5 -18 5 -16 0 -22 -2 -12 -5z"/>
<path d="M1456 53 c-4 -4 -31 -10 -59 -14 l-52 -6 63 -2 c49 -1 62 2 62 14 0
17 -3 18 -14 8z"/>
</g>
</svg>
